<svg viewBox="0 0 128 41" xmlns="http://www.w3.org/2000/svg">
  <title>
    BURP
  </title>
  <g fill-rule="evenodd">
    <g transform="translate(26)">
      <circle cx="4.1" cy="2.2" r="1.6"/>
      <circle cx="2" cy="7" r="2"/>
      <circle cx="7.4" cy="4.9" r="1.4"/>
    </g>
    <path d="M16 9a6 6 0 0 1 5.2 3 9 9 0 0 1 4.5 16.7 6.5 6.5 0 0 1-4 7.9A6 6 0 0 1 10 35V15a6 6 0 0 1 6-6zm8 21.5c0-1-.4-2-1-2.8A7 7 0 0 0 20 14.1a4 4 0 0 0-7.9.9 21 21 0 0 0-2 3.6v13c0 .3.7 1.4 2 3.4a4 4 0 0 0 8 0c2.2-.3 4-2.2 4-4.5z" fill-rule="nonzero"/>
    <g fill-rule="nonzero">
      <path d="M0 24.4l-.4-1.5 16.5-3.3.3 1.5zM-.3 29.2l.1-1.5 16.5 1.1-.1 1.5z"/>
    </g>
    <path d="M61.4 30.7a5.6 5.6 0 0 1-2 4.3c-.6.5-1.3 1-2 1.3a14.6 14.6 0 0 1-5 1 34.7 34.7 0 0 1-7-.2 20.2 20.2 0 0 1-4.4-1.4V13.1a21.3 21.3 0 0 1 6.6-1.6 22.3 22.3 0 0 1 4.7 0A14 14 0 0 1 57 13c.6.4 1.2.9 1.7 1.5.6.5 1 1.2 1.2 2a7.4 7.4 0 0 1 .2 4.5 5.1 5.1 0 0 1-3.8 3.4c.8.2 1.5.5 2 .9a6.2 6.2 0 0 1 3 5.4zm-9-10c0-.3 0-.6-.2-.8a2 2 0 0 0-1.2-1H49.7l-.6.3-.2 3.9h1l1.2-.4 1-.7c.2-.3.3-.7.3-1.3zM50 26.5h-1v4a19.8 19.8 0 0 0 1 .2h.8l.8-.4c.3-.1.5-.4.7-.6l.2-1.1c0-.4 0-.8-.2-1a2 2 0 0 0-1.5-1l-.8-.1zm33.4-9A36.8 36.8 0 0 1 81 30.2l-1.5 3c-.6 1-1.3 1.7-2 2.4a8.2 8.2 0 0 1-5.7 2.2c-1.5 0-2.6-.2-3.6-.7a8 8 0 0 1-2.6-1.7 9.4 9.4 0 0 1-1.8-2.6 24 24 0 0 1-1.8-9.9 49.2 49.2 0 0 1 1-9.8l8.2.3A117 117 0 0 0 70 24.6a21.6 21.6 0 0 0 .7 5c.1.5.3.8.5 1 .2.4.5.5.8.5.3 0 .6-.2 1-.5l.6-1.3.6-1.8a29.5 29.5 0 0 0 .8-6.7 45 45 0 0 0-.1-8.3H83l.2 5zm22 2.6c0 .9 0 1.7-.2 2.4a7.5 7.5 0 0 1-2 3.8l-2 1.5 4.2 7.5-8 1.5-2.7-7.5-2.1.1-.4 7.3h-7.5a3956.7 3956.7 0 0 0 .5-24 23 23 0 0 1 7.3-1.4H95c1.4 0 2.7.1 4 .5 1.2.4 2.3 1 3.2 1.6 1 .8 1.8 1.7 2.4 2.8.5 1.1.8 2.4.8 3.9zm-7.9.5c0-.5 0-1-.2-1.3a2.7 2.7 0 0 0-1.6-1.8c-.3-.2-.8-.3-1.3-.3a5.3 5.3 0 0 0-1.4.2l-.2 6.6h.4l1.5-.2 1.4-.6a2.8 2.8 0 0 0 1.4-2.5zm29.6-.5a7.4 7.4 0 0 1-2 5.3c-.5.7-1.2 1.2-2 1.7l-2.5 1.1a17.2 17.2 0 0 1-5.7.9v8.1h-8.2a1819.5 1819.5 0 0 1 .2-24.6 32.6 32.6 0 0 1 11.8-1.1 13.1 13.1 0 0 1 4.9 1.8 8 8 0 0 1 3.5 6.8zm-7.8.6c0-.8-.2-1.4-.7-1.8-.5-.4-1-.6-1.8-.6a8.4 8.4 0 0 0-1.5.2l-.2 5.1h.9a3.6 3.6 0 0 0 2.3-.8c.3-.2.6-.6.7-1 .2-.3.3-.7.3-1.1z"/>
  </g>
</svg>
