<svg width="512" height="512" xmlns="http://www.w3.org/2000/svg">
  <g fill="none" fill-rule="evenodd">
    <path fill="#263238" d="M0 0h512v512H0z"/>
    <g transform="translate(134.3 177)" fill="#FFF">
      <ellipse cx="13.1" cy="7.1" rx="5.2" ry="5.4"/>
      <ellipse cx="6.5" cy="22.7" rx="6.5" ry="6.7"/>
      <ellipse cx="23.6" cy="16.1" rx="4.4" ry="4.5"/>
    </g>
    <path d="M102 207.5c7.2 0 13.6 3.9 17 9.6a28.7 28.7 0 1 1 14.8 53.3 20.9 20.9 0 0 1-13 25.4 19.6 19.6 0 0 1-18.8 14.2 19.4 19.4 0 0 1-19.6-19.2v-64c0-10.7 8.7-19.3 19.6-19.3zm26.1 68.9c0-3.4-1.1-6.5-3.1-9a22.5 22.5 0 0 0 16.2-21.4 22.7 22.7 0 0 0-26.5-22.2A13 13 0 0 0 102 214a13 13 0 0 0-13.1 12.8c-4.4 7-6.5 10.8-6.5 11.5v41.7c0 1 2.1 4.6 6.5 11a13 13 0 0 0 13 12.7 13 13 0 0 0 13.2-12.8c7.3-.9 13-7 13-14.4z" fill-rule="nonzero" fill="#FFF"/>
    <g stroke="#FFF" stroke-linecap="square" stroke-width="1.5">
      <path d="M52.6 253.9l48-9.8M52.6 270.2l48 3.3"/>
    </g>
    <path d="M247.5 277.6c0 3.1-.5 5.9-1.7 8.2a18.1 18.1 0 0 1-4.6 5.8c-1.9 1.6-4 3-6.6 4a46 46 0 0 1-16 3.5 109 109 0 0 1-22.2-.8 63.4 63.4 0 0 1-14.2-4.4v-74a67.3 67.3 0 0 1 21.2-5.3 69.9 69.9 0 0 1 15.2.1 43.8 43.8 0 0 1 14.9 4.9 21 21 0 0 1 9.5 11.3 24.8 24.8 0 0 1 .5 14.6 16.9 16.9 0 0 1-6.7 9c-1.6 1-3.5 1.7-5.5 2.2 2.5.7 4.7 1.6 6.7 3a19.9 19.9 0 0 1 8.4 10.6c.8 2.3 1.1 4.7 1.1 7.3zM219 244.8c0-1.1-.2-2-.6-2.9a6.3 6.3 0 0 0-3.8-3l-2.1-.3c-.7 0-1.5 0-2.2.3l-2 .8-.4 12.8c.8 0 2 0 3.2-.2a13 13 0 0 0 3.7-1 8 8 0 0 0 3-2.4c.8-1 1.2-2.4 1.2-4.1zm-8 18.7c-1 0-2.1.1-3.1.4l-.2 13a62.2 62.2 0 0 0 3.2.5c.8 0 1.7 0 2.6-.2 1-.2 1.8-.5 2.7-1a6.6 6.6 0 0 0 2.9-5.6 7 7 0 0 0-.9-3.6 6.4 6.4 0 0 0-4.6-3.2l-2.6-.3zm107-29.4a122.8 122.8 0 0 1-7.6 41.8 64 64 0 0 1-5 9.7 38 38 0 0 1-6.6 7.8 25.8 25.8 0 0 1-18.4 7.2c-4.3 0-8-.7-11.3-2-3.2-1.5-6-3.5-8.2-5.9a30.8 30.8 0 0 1-5.7-8.5 54.1 54.1 0 0 1-3.4-10.3c-.8-3.6-1.4-7.3-1.7-11a129.5 129.5 0 0 1 .3-27c.5-5.4 1.3-10.7 2.2-16l26.4 1c-1 6-1.9 12-2.6 18.1a153 153 0 0 0-.7 25.5 67.4 67.4 0 0 0 1.8 9.5c.5 1.4 1 2.5 1.8 3.4.6.9 1.5 1.3 2.4 1.3 1 0 2-.5 3-1.6.8-1 1.6-2.4 2.2-4.2a98.2 98.2 0 0 0 3.8-20.8 325.1 325.1 0 0 0 .8-16.3 283.1 283.1 0 0 0-.6-17.8h26.4c.4 5.3.7 10.6.7 16zm70.5 8.5c0 3-.3 5.7-.8 8.1a24.8 24.8 0 0 1-6.6 12.4 37.7 37.7 0 0 1-6.3 5l13.4 24.3-25.3 5L354 273l-7 .2-1 23.9H322a13214.3 13214.3 0 0 0 1.4-65.3c0-4.3.2-8.7.4-13.1a72.5 72.5 0 0 1 23.3-4.8l8.1-.2c4.3 0 8.5.6 12.4 1.8 4 1.3 7.6 3 10.7 5.5a27 27 0 0 1 7.4 9c1.8 3.6 2.8 7.8 2.8 12.6zm-25.3 1.8c0-1.6-.2-3-.6-4.4-.4-1.3-1-2.5-2-3.5-.8-1-1.8-1.7-3-2.3-1.3-.5-2.8-.8-4.5-.8a16.5 16.5 0 0 0-4.3.6l-.9 21.4h1.4a20 20 0 0 0 4.9-.7c1.7-.4 3.2-1 4.5-2 1.3-.8 2.4-2 3.3-3.3.8-1.4 1.2-3 1.2-5zm94.7-1.7c0 3.7-.5 7-1.6 9.9a24.2 24.2 0 0 1-11.1 13 54 54 0 0 1-26.4 6.4v26.8h-26.3a6077.3 6077.3 0 0 1 .6-80.7 102.7 102.7 0 0 1 29.2-4.4 53 53 0 0 1 17 3c2.7 1 5.1 2.4 7.4 3.9a25.6 25.6 0 0 1 11.2 22.1zm-25 2c0-2.5-.7-4.5-2.2-5.9a8 8 0 0 0-5.8-2l-2.4.1-2.4.5-.7 16.8 1.5.1h1.6a11.3 11.3 0 0 0 7.2-2.6 10 10 0 0 0 2.4-3.1c.5-1.2.8-2.5.8-4z" fill="#FFF"/>
  </g>
</svg>
